<svg width="16" height="13" viewBox="0 0 16 13" fill="none" xmlns="http://www.w3.org/2000/svg">
<path d="M1.15037 12.5822C0.503287 12.5822 0 12.0933 0 11.4462V1.13599C0 0.488908 0.503287 0 1.15037 0C1.79746 0 2.30074 0.488908 2.30074 1.13599V11.4462C2.30074 12.0933 1.79746 12.5822 1.15037 12.5822ZM3.54723 6.29828C3.54723 5.62244 4.03613 5.13353 4.74074 5.13353H10.2769L12.592 5.29171L10.2625 3.2498L9.3566 2.35826C9.11215 2.12819 8.99711 1.84059 8.99711 1.49548C8.99711 0.848399 9.48602 0.38825 10.1475 0.38825C10.4351 0.38825 10.7371 0.488908 10.9815 0.747742L15.6261 5.43551C15.8562 5.66558 16 5.96755 16 6.29828C16 6.6434 15.8706 6.94537 15.6261 7.17544L10.9959 11.8344C10.7658 12.0645 10.4207 12.1939 10.1475 12.1939C9.45726 12.1939 8.99711 11.7338 8.99711 11.0867C8.99711 10.7128 9.12653 10.454 9.3566 10.2383L10.2625 9.37553L12.6064 7.30486L10.2769 7.47742H4.74074C4.03613 7.47742 3.54723 7.01727 3.54723 6.29828Z" fill="#4B4B4D"/>
</svg>
