<svg width="19" height="24" viewBox="0 0 19 24" fill="none" xmlns="http://www.w3.org/2000/svg">
<g clip-path="url(#clip0_214_331)">
<path d="M9.20001 19.83C9.07001 19.83 8.94001 19.81 8.82001 19.76C8.70001 19.71 8.59001 19.63 8.49001 19.54C8.40001 19.45 8.33001 19.34 8.28001 19.22C8.22001 19.1 8.20001 18.96 8.20001 18.83C8.20001 18.7 8.22001 18.57 8.28001 18.45C8.33001 18.33 8.40001 18.22 8.49001 18.13C8.88001 17.74 9.51001 17.73 9.90001 18.13C10.08 18.32 10.19 18.57 10.19 18.83C10.19 18.96 10.16 19.1 10.11 19.22C9.95001 19.59 9.59001 19.83 9.19001 19.83H9.20001Z" fill="#222224"/>
<path d="M4.90002 8.66H13.5" stroke="#8247F6" stroke-width="2" stroke-linecap="round" stroke-linejoin="round"/>
<path d="M4.90002 13.75H13.5" stroke="#8247F6" stroke-width="2" stroke-linecap="round" stroke-linejoin="round"/>
<path d="M15.03 1H3.37C2.06108 1 1 2.06108 1 3.37V20.28C1 21.5889 2.06108 22.65 3.37 22.65H15.03C16.3389 22.65 17.4 21.5889 17.4 20.28V3.37C17.4 2.06108 16.3389 1 15.03 1Z" stroke="#222224" stroke-width="2" stroke-miterlimit="10"/>
<path d="M4.52002 1.18L7.09002 3.51H11.3L13.88 1.18H4.52002Z" fill="#222224" stroke="#222224" stroke-width="2" stroke-linecap="round" stroke-linejoin="round"/>
</g>
<defs>
<clipPath id="clip0_214_331">
<rect width="18.4" height="23.65" fill="white"/>
</clipPath>
</defs>
</svg>
