<svg width="32" height="32" viewBox="0 0 32 32" fill="none" xmlns="http://www.w3.org/2000/svg">
<path d="M21.8693 22.4116C21.3879 21.3329 20.6046 20.4166 19.6139 19.7733C18.6233 19.13 17.4675 18.7873 16.2863 18.7865C15.1051 18.7873 13.9494 19.13 12.9587 19.7733C11.968 20.4166 11.1847 21.3329 10.7034 22.4116" stroke="#8C10FE" stroke-width="1.69953" stroke-linecap="round" stroke-linejoin="round"/>
<path d="M16.2862 14.1977C17.9757 14.1977 19.3454 12.8281 19.3454 11.1386C19.3454 9.44907 17.9757 8.07944 16.2862 8.07944C14.5967 8.07944 13.2271 9.44907 13.2271 11.1386C13.2271 12.8281 14.5967 14.1977 16.2862 14.1977Z" stroke="#8C10FE" stroke-width="1.69953" stroke-linecap="round" stroke-linejoin="round"/>
<path d="M16.2862 29.4935C23.8891 29.4935 30.0524 23.3302 30.0524 15.7273C30.0524 8.12446 23.8891 1.96112 16.2862 1.96112C8.68336 1.96112 2.52002 8.12446 2.52002 15.7273C2.52002 23.3302 8.68336 29.4935 16.2862 29.4935Z" stroke="#222224" stroke-width="1.69953" stroke-linecap="round" stroke-linejoin="round"/>
</svg>
