<svg width="24" height="25" viewBox="0 0 24 25" fill="none" xmlns="http://www.w3.org/2000/svg">
<path d="M6.54378 24.1063H3.90006C3.19891 24.1063 2.52647 23.8309 2.03067 23.3408C1.53488 22.8507 1.25635 22.186 1.25635 21.4929V10.1119C1.2566 9.72045 1.34581 9.33403 1.51741 8.98121C1.689 8.6284 1.93859 8.3182 2.24774 8.07353L10.1789 1.80155C10.6478 1.43045 11.2305 1.22826 11.8312 1.22826C12.4319 1.22826 13.0146 1.43045 13.4835 1.80155L21.4147 8.07353C21.7238 8.3182 21.9734 8.6284 22.145 8.98121C22.3166 9.33403 22.4058 9.72045 22.4061 10.1119V21.4929C22.4061 22.186 22.1275 22.8507 21.6317 23.3408C21.1359 23.8309 20.4635 24.1063 19.7623 24.1063H17.1186" stroke="#222224" stroke-width="1.69953" stroke-linecap="round" stroke-linejoin="round"/>
<path d="M7.8656 16.2663H15.7967" stroke="#8C10FE" stroke-width="1.69953" stroke-linecap="round" stroke-linejoin="round"/>
<path d="M11.8312 12.3463V24.1062" stroke="#8C10FE" stroke-width="1.69953" stroke-linecap="round" stroke-linejoin="round"/>
</svg>
